# xmcd
#
# Track frame offsets:
#	150
#	13850
#	35615
#	52112
#	72212
#	90437
#	113700
#	130597
#	138902
#	141267
#	156700
#	179695
#	203805
#	220097
#	231590
#
# Disc length: 3290 seconds
#
# Revision: 0
# Processed by: cddbd v1.5.2PL0 Copyright (c) Steve Scherf et al.
# Submitted via: audiograbber 1.83.01
#
DISCID=e30cd80f
DTITLE=Earth, Wind and Fire - Open Our Eyes
DYEAR=1974
DGENRE=Funk
TTITLE0=Mighty Mighty
TTITLE1=Devotion
TTITLE2=Fair But So Uncool
TTITLE3=Feelin' Blue
TTITLE4=Kalimba Story
TTITLE5=Drum Song
TTITLE6=Tee Nine Chee Bit
TTITLE7=Spasmodic Movements
TTITLE8=Rabbit Seed
TTITLE9=Caribou
TTITLE10=Open Our Eyes
TTITLE11=Ain't No Harm To Moan (Slave Song)
TTITLE12=Fair But So Uncool (Walkin' In N'Awlins Mix)
TTITLE13=Step's Tune
TTITLE14=Dreams
EXTD=EARTH, WIND and FIRE - OPEN OUR EYES\n\nColumbia/Legacy - Sony © 2001\nDigit
EXTD=ally remastered - 4 previously unreleased bonus tracks\nCOL 501500 2
EXTT0=
EXTT1=
EXTT2=
EXTT3=
EXTT4=
EXTT5=
EXTT6=
EXTT7=
EXTT8=
EXTT9=
EXTT10=
EXTT11=
EXTT12=
EXTT13=
EXTT14=
PLAYORDER=
